<svg width="16" height="16" viewBox="0 0 16 16" fill="none" xmlns="http://www.w3.org/2000/svg">
<g clip-path="url(#clip0_43_207)">
<circle cx="8" cy="8" r="8" fill="#FFDC00"/>
<path fill-rule="evenodd" clip-rule="evenodd" d="M8.21581 4.05779C8.07903 3.99467 7.92105 3.99467 7.78427 4.05779L4.79593 5.43687C4.6344 5.51141 4.5472 5.64498 4.53807 5.77209C4.44856 7.01871 4.71128 8.61992 5.32907 9.89322C5.95192 11.177 6.85685 11.9896 8.00004 11.9896C9.18169 11.9896 10.1103 11.1194 10.7323 9.7632C11.3449 8.42746 11.5774 6.77362 11.4414 5.5464L8.21581 4.05779ZM7.35273 3.14202C7.76306 2.95266 8.23703 2.95266 8.64735 3.14202L11.8806 4.63417C12.1826 4.77351 12.4132 5.05893 12.4538 5.41305C12.6152 6.82297 12.3545 8.67102 11.6621 10.1808C10.9758 11.6773 9.78009 13 8.00004 13C6.2791 13 5.10303 11.7618 4.40861 10.3306C3.70913 8.88889 3.41831 7.11085 3.51958 5.70047C3.5584 5.15987 3.91289 4.72947 4.3644 4.5211L7.35273 3.14202Z" fill="black"/>
<path fill-rule="evenodd" clip-rule="evenodd" d="M9.85355 6.64645C10.0488 6.84171 10.0488 7.15829 9.85355 7.35355L7.85355 9.35355C7.65829 9.54882 7.34171 9.54882 7.14645 9.35355L6.14645 8.35355C5.95118 8.15829 5.95118 7.84171 6.14645 7.64645C6.34171 7.45118 6.65829 7.45118 6.85355 7.64645L7.5 8.29289L9.14645 6.64645C9.34171 6.45118 9.65829 6.45118 9.85355 6.64645Z" fill="black"/>
</g>
<defs>
<clipPath id="clip0_43_207">
<rect width="16" height="16" fill="white"/>
</clipPath>
</defs>
</svg>
