<svg width="16" height="16" viewBox="0 0 16 16" fill="none" xmlns="http://www.w3.org/2000/svg">
<g clip-path="url(#clip0_43_197)">
<circle cx="8" cy="8" r="8" fill="#FFDC00"/>
<path fill-rule="evenodd" clip-rule="evenodd" d="M4 3.5C4.27614 3.5 4.5 3.72386 4.5 4V10.5C4.5 11.0523 4.94772 11.5 5.5 11.5H12C12.2761 11.5 12.5 11.7239 12.5 12C12.5 12.2761 12.2761 12.5 12 12.5H5.5C4.39543 12.5 3.5 11.6046 3.5 10.5V4C3.5 3.72386 3.72386 3.5 4 3.5Z" fill="#292929"/>
<path fill-rule="evenodd" clip-rule="evenodd" d="M12.1581 3.52567C12.4201 3.613 12.5617 3.89616 12.4744 4.15813L11.486 7.12313C11.1334 8.18098 9.79081 8.49792 9.00234 7.70944L8.29058 6.99769C8.02776 6.73486 7.58023 6.84051 7.46269 7.19313L6.47436 10.1581C6.38703 10.4201 6.10387 10.5617 5.8419 10.4744C5.57993 10.387 5.43835 10.1039 5.52567 9.8419L6.514 6.8769C6.86662 5.81905 8.20921 5.50211 8.99769 6.29058L9.70944 7.00234C9.97227 7.26516 10.4198 7.15951 10.5373 6.8069L11.5257 3.8419C11.613 3.57993 11.8962 3.43835 12.1581 3.52567Z" fill="#292929"/>
</g>
<defs>
<clipPath id="clip0_43_197">
<rect width="16" height="16" fill="white"/>
</clipPath>
</defs>
</svg>
