<svg width="18" height="38" viewBox="0 0 18 38" fill="none" xmlns="http://www.w3.org/2000/svg">
<path fill-rule="evenodd" clip-rule="evenodd" d="M0.0567627 23.2434V14.1311L4.44418 18.6875L0.0567627 23.2434Z" fill="#FFDC00"/>
<path fill-rule="evenodd" clip-rule="evenodd" d="M0.000610352 32.7059V23.3604L4.50075 28.0333L0.000610352 32.7059Z" fill="#FFDC00"/>
<path fill-rule="evenodd" clip-rule="evenodd" d="M9.00012 23.3597V14.0147L13.5007 18.6868L9.00012 23.3597Z" fill="#FCB813"/>
<path fill-rule="evenodd" clip-rule="evenodd" d="M8.99957 14.0147V23.3597L4.50024 18.6872L8.99957 14.0147Z" fill="#FFDC00"/>
<path fill-rule="evenodd" clip-rule="evenodd" d="M17.9999 14.0147V23.3597L13.5001 18.6872L17.9999 14.0147Z" fill="#FFDC00"/>
<path fill-rule="evenodd" clip-rule="evenodd" d="M17.9999 23.3598V32.7044L13.5001 28.0323L17.9999 23.3598Z" fill="#FFDC00"/>
<path fill-rule="evenodd" clip-rule="evenodd" d="M4.50061 28.033V18.6871L8.99993 23.3596L4.50061 28.033Z" fill="#FFDC00"/>
<path fill-rule="evenodd" clip-rule="evenodd" d="M4.50074 18.6871V28.033L0.000610352 23.36L4.50074 18.6871Z" fill="#FFDC00"/>
<path fill-rule="evenodd" clip-rule="evenodd" d="M13.5001 28.033V18.6871L17.9999 23.3596L13.5001 28.033Z" fill="#FCB813"/>
<path fill-rule="evenodd" clip-rule="evenodd" d="M13.5002 18.6871V28.033L8.99963 23.36L13.5002 18.6871Z" fill="#FFDC00"/>
<path fill-rule="evenodd" clip-rule="evenodd" d="M9.00012 32.7059V23.3604L13.5007 28.0325L9.00012 32.7059Z" fill="#FCB813"/>
<path fill-rule="evenodd" clip-rule="evenodd" d="M8.99957 23.3598V32.7053L4.50024 28.0331L8.99957 23.3598Z" fill="#FFDC00"/>
<path fill-rule="evenodd" clip-rule="evenodd" d="M4.50061 37.3783V28.0328L8.99993 32.7049L4.50061 37.3783Z" fill="#FFDC00"/>
<path fill-rule="evenodd" clip-rule="evenodd" d="M4.50074 28.0328V37.3783L0.000610352 32.7062L4.50074 28.0328Z" fill="#FFDC00"/>
<path fill-rule="evenodd" clip-rule="evenodd" d="M13.5001 37.3783V28.0328L17.9999 32.7049L13.5001 37.3783Z" fill="#FCB813"/>
<path fill-rule="evenodd" clip-rule="evenodd" d="M13.5002 28.0328V37.3783L8.99963 32.7062L13.5002 28.0328Z" fill="#FFDC00"/>
<path fill-rule="evenodd" clip-rule="evenodd" d="M13.5005 37.3777H4.50061L9.00034 32.7044L13.5005 37.3777Z" fill="#FCB813"/>
<path fill-rule="evenodd" clip-rule="evenodd" d="M9.00012 14.0179V4.67242L13.5007 9.34454L9.00012 14.0179Z" fill="#FFDC00"/>
<path fill-rule="evenodd" clip-rule="evenodd" d="M8.99957 4.67361V14.0183L4.50024 9.34614L8.99957 4.67361Z" fill="#FFDC00"/>
<path fill-rule="evenodd" clip-rule="evenodd" d="M8.99957 4.67242V14.0179L4.50024 9.34579L8.99957 4.67242Z" fill="#76B0B1"/>
<path fill-rule="evenodd" clip-rule="evenodd" d="M9.00037 14.0179V4.67242L13.5005 9.34454L9.00037 14.0179Z" fill="#5F9DA9"/>
<path fill-rule="evenodd" clip-rule="evenodd" d="M13.4998 0V9.34547L8.99963 4.67336L13.4998 0Z" fill="#76B0B1"/>
<path fill-rule="evenodd" clip-rule="evenodd" d="M13.5001 9.34548V0L17.9999 4.67295L13.5001 9.34548Z" fill="#5F9DA9"/>
<path fill-rule="evenodd" clip-rule="evenodd" d="M4.49972 0V9.34547L0 4.67336L4.49972 0Z" fill="#76B0B1"/>
<path fill-rule="evenodd" clip-rule="evenodd" d="M4.50061 9.34548V0L8.99993 4.67295L4.50061 9.34548Z" fill="#76B0B1"/>
<path fill-rule="evenodd" clip-rule="evenodd" d="M4.50061 18.6871V9.3425L8.99993 14.0146L4.50061 18.6871Z" fill="#FFDC00"/>
<path fill-rule="evenodd" clip-rule="evenodd" d="M4.50074 9.3425V18.6876L0.000610352 14.015L4.50074 9.3425Z" fill="#FFDC00"/>
<path fill-rule="evenodd" clip-rule="evenodd" d="M13.5001 18.6871V9.3425L17.9999 14.0146L13.5001 18.6871Z" fill="#FCB813"/>
<path fill-rule="evenodd" clip-rule="evenodd" d="M13.5002 9.3425V18.6876L8.99963 14.015L13.5002 9.3425Z" fill="#FFDC00"/>
</svg>
