<svg width="158" height="144" viewBox="0 0 158 144" fill="none" xmlns="http://www.w3.org/2000/svg">
<g opacity="0.5">
<path d="M16.7143 49.7949C16.7143 49.7949 30.3955 78.5245 30.3955 113H44.5654C44.5654 113 45.7055 66.2118 16.7143 49.7949Z" fill="url(#paint0_linear_1_774)"/>
<path d="M85.2857 49.7949C85.2857 49.7949 71.6045 78.5245 71.6045 113H57.4347C57.4347 113 56.2945 66.2118 85.2857 49.7949Z" fill="url(#paint1_linear_1_774)"/>
<path d="M96 75.9487C96 75.9487 85.8277 88.2991 85.8277 113H71.772C71.7722 113 69.3426 84.1824 96 75.9487Z" fill="url(#paint2_linear_1_774)"/>
<path d="M6 75.9487C6 75.9487 16.1723 88.2991 16.1723 113H30.228C30.2279 113 32.6574 84.1824 6 75.9487Z" fill="url(#paint3_linear_1_774)"/>
<path d="M73.1428 28C73.1428 28 58.1979 63.9109 58.1979 113H43.9098C43.9098 113 41.2821 55.1803 73.1428 28Z" fill="url(#paint4_linear_1_774)"/>
</g>
<g opacity="0.5">
<path d="M69.7143 49.7949C69.7143 49.7949 83.3955 78.5245 83.3955 113H97.5654C97.5654 113 98.7055 66.2118 69.7143 49.7949Z" fill="url(#paint5_linear_1_774)"/>
<path d="M138.286 49.7949C138.286 49.7949 124.605 78.5245 124.605 113H110.435C110.435 113 109.295 66.2118 138.286 49.7949Z" fill="url(#paint6_linear_1_774)"/>
<path d="M149 75.9487C149 75.9487 138.828 88.2991 138.828 113H124.772C124.772 113 122.343 84.1824 149 75.9487Z" fill="url(#paint7_linear_1_774)"/>
<path d="M59 75.9487C59 75.9487 69.1723 88.2991 69.1723 113H83.228C83.2279 113 85.6574 84.1824 59 75.9487Z" fill="url(#paint8_linear_1_774)"/>
<path d="M126.143 28C126.143 28 111.198 63.9109 111.198 113H96.9098C96.9098 113 94.2821 55.1803 126.143 28Z" fill="url(#paint9_linear_1_774)"/>
</g>
<path fill-rule="evenodd" clip-rule="evenodd" d="M77 79V53L90 65.9983L77 79Z" fill="#53C317"/>
<path fill-rule="evenodd" clip-rule="evenodd" d="M90 92V66L103 78.9983L90 92Z" fill="#53C317"/>
<path fill-rule="evenodd" clip-rule="evenodd" d="M64 92L64 66L77 78.9983L64 92Z" fill="#9FE516"/>
<path fill-rule="evenodd" clip-rule="evenodd" d="M90 66V40L103 52.9983L90 66Z" fill="#53C317"/>
<path fill-rule="evenodd" clip-rule="evenodd" d="M64 66L64 40L77 52.9983L64 66Z" fill="#9FE516"/>
<path fill-rule="evenodd" clip-rule="evenodd" d="M77 53V79L64 66.0017L77 53Z" fill="#9FE516"/>
<path fill-rule="evenodd" clip-rule="evenodd" d="M51 53L51 79L64 66.0017L51 53Z" fill="#9FE516"/>
<path fill-rule="evenodd" clip-rule="evenodd" d="M90 66V92L77 79.0017L90 66Z" fill="#9FE516"/>
<path fill-rule="evenodd" clip-rule="evenodd" d="M64 66L64 92L51 79.0017L64 66Z" fill="#9FE516"/>
<path fill-rule="evenodd" clip-rule="evenodd" d="M103 53V79L90 66.0017L103 53Z" fill="#9FE516"/>
<path fill-rule="evenodd" clip-rule="evenodd" d="M90 40V66L77 53.0017L90 40Z" fill="#9FE516"/>
<path fill-rule="evenodd" clip-rule="evenodd" d="M64 40L64 66L51 53.0017L64 40Z" fill="#9FE516"/>
<path fill-rule="evenodd" clip-rule="evenodd" d="M90 92H64L76.9994 79L90 92Z" fill="#53C317"/>
<path fill-rule="evenodd" clip-rule="evenodd" d="M90 40L64 40L76.9994 53L90 40Z" fill="#9FE516"/>
<path fill-rule="evenodd" clip-rule="evenodd" d="M77 53V27L90 39.9983L77 53Z" fill="#018A46"/>
<path fill-rule="evenodd" clip-rule="evenodd" d="M90 40V14L103 26.9983L90 40Z" fill="#018A46"/>
<path fill-rule="evenodd" clip-rule="evenodd" d="M64 40L64 14L77 26.9983L64 40Z" fill="#02B05F"/>
<path fill-rule="evenodd" clip-rule="evenodd" d="M77 27V53L64 40.0017L77 27Z" fill="#02B05F"/>
<path fill-rule="evenodd" clip-rule="evenodd" d="M90 14V40L77 27.0017L90 14Z" fill="#02B05F"/>
<path fill-rule="evenodd" clip-rule="evenodd" d="M64 14L64 40L51 27.0017L64 14Z" fill="#02B05F"/>
<path fill-rule="evenodd" clip-rule="evenodd" d="M77 92V118.472L64 105.238L77 92Z" fill="#02B05F"/>
<path fill-rule="evenodd" clip-rule="evenodd" d="M77 92V118.472L64 105.238L77 92Z" fill="#02B05F"/>
<path fill-rule="evenodd" clip-rule="evenodd" d="M64 79V105.472L51 92.2379L64 79Z" fill="#02B05F"/>
<path fill-rule="evenodd" clip-rule="evenodd" d="M51 66V92.4722L38 79.2379L51 66Z" fill="#02B05F"/>
<path fill-rule="evenodd" clip-rule="evenodd" d="M38 53V79.4722L25 66.2379L38 53Z" fill="#02B05F"/>
<path fill-rule="evenodd" clip-rule="evenodd" d="M64 79V105.472L77 92.2379L64 79Z" fill="#02B05F"/>
<path fill-rule="evenodd" clip-rule="evenodd" d="M51 66V92.4722L64 79.2379L51 66Z" fill="#02B05F"/>
<path fill-rule="evenodd" clip-rule="evenodd" d="M38 53V79.4722L51 66.2379L38 53Z" fill="#02B05F"/>
<path fill-rule="evenodd" clip-rule="evenodd" d="M77 118V92L90 104.998L77 118Z" fill="#018B46"/>
<path fill-rule="evenodd" clip-rule="evenodd" d="M90 79V105L77 92.0017L90 79Z" fill="#02B05F"/>
<path fill-rule="evenodd" clip-rule="evenodd" d="M103 66V92L90 79.0017L103 66Z" fill="#02B05F"/>
<path fill-rule="evenodd" clip-rule="evenodd" d="M116 53V79L103 66.0017L116 53Z" fill="#02B05F"/>
<path fill-rule="evenodd" clip-rule="evenodd" d="M90 105V79L103 92.0006L90 105Z" fill="#018B46"/>
<path fill-rule="evenodd" clip-rule="evenodd" d="M103 92V66L116 79.0006L103 92Z" fill="#018B46"/>
<path fill-rule="evenodd" clip-rule="evenodd" d="M116 79V53L129 66.0006L116 79Z" fill="#018B46"/>
<path fill-rule="evenodd" clip-rule="evenodd" d="M77 118V144L64 131.002L77 118Z" fill="#01A454"/>
<path fill-rule="evenodd" clip-rule="evenodd" d="M90 105V131L77 118.002L90 105Z" fill="#01A454"/>
<path fill-rule="evenodd" clip-rule="evenodd" d="M103 92V118L90 105.002L103 92Z" fill="#01A454"/>
<path fill-rule="evenodd" clip-rule="evenodd" d="M116 79V105L103 92.0017L116 79Z" fill="#01A454"/>
<path fill-rule="evenodd" clip-rule="evenodd" d="M64 105V131L51 118.002L64 105Z" fill="#01A454"/>
<path fill-rule="evenodd" clip-rule="evenodd" d="M51 92V118L38 105.002L51 92Z" fill="#01A454"/>
<path fill-rule="evenodd" clip-rule="evenodd" d="M38 79V105L25 92.0017L38 79Z" fill="#01A454"/>
<path fill-rule="evenodd" clip-rule="evenodd" d="M77 144V118L90 131.001L77 144Z" fill="#018A46"/>
<path fill-rule="evenodd" clip-rule="evenodd" d="M90 131V105L103 118.001L90 131Z" fill="#018A46"/>
<path fill-rule="evenodd" clip-rule="evenodd" d="M103 118V92L116 105.001L103 118Z" fill="#018A46"/>
<path fill-rule="evenodd" clip-rule="evenodd" d="M116 105V79L129 92.0006L116 105Z" fill="#018A46"/>
<path fill-rule="evenodd" clip-rule="evenodd" d="M64 131V105L77 118.001L64 131Z" fill="#01A454"/>
<path fill-rule="evenodd" clip-rule="evenodd" d="M51 118V92L64 105.001L51 118Z" fill="#01A454"/>
<path fill-rule="evenodd" clip-rule="evenodd" d="M38 105V79L51 92.0006L38 105Z" fill="#01A454"/>
<path fill-rule="evenodd" clip-rule="evenodd" d="M110 13.9989L125.972 13.9989H125.976L117.989 21.9986H133.963L133.961 22L149.939 22L141.949 13.9989H141.949H141.95L157.928 13.9989L149.939 6L141.95 13.9988L133.961 6L125.976 13.9958L117.99 6L110 13.9989ZM125.977 13.9989L133.965 21.9966L141.949 13.9989H125.979H125.977Z" fill="white"/>
<path fill-rule="evenodd" clip-rule="evenodd" d="M0 41.9989H15.9724H15.9759L7.98869 49.9986H23.9628L23.9614 50H39.9386L31.9493 41.9989H31.9494H31.9497H47.9281L39.9387 34L31.9495 41.9988L23.9611 34L15.9756 41.9958L7.99005 34L0 41.9989ZM15.9773 41.9989L23.9647 49.9966L31.9493 41.9989H15.9787H15.9773Z" fill="white"/>
<rect x="19" y="101" width="118" height="8" rx="4" fill="#A37300"/>
<path d="M78 101H133C135.209 101 137 102.791 137 105C137 107.209 135.209 109 133 109H78V101Z" fill="#825C00"/>
<path fill-rule="evenodd" clip-rule="evenodd" d="M140 55.923V34L150.96 44.962L140 55.923Z" fill="#5F9DA9"/>
<path fill-rule="evenodd" clip-rule="evenodd" d="M29 21.923V0L39.96 10.962L29 21.923Z" fill="#FCB813"/>
<path fill-rule="evenodd" clip-rule="evenodd" d="M139.96 34V55.923L129 44.962L139.96 34Z" fill="#76B0B1"/>
<path fill-rule="evenodd" clip-rule="evenodd" d="M128 104.961H149.923L138.962 94L128 104.961Z" fill="#FCB813"/>
<path fill-rule="evenodd" clip-rule="evenodd" d="M3 104.961H24.923L13.962 94L3 104.961Z" fill="#5F9DA9"/>
<defs>
<linearGradient id="paint0_linear_1_774" x1="44.4384" y1="112.396" x2="44.4384" y2="49.7949" gradientUnits="userSpaceOnUse">
<stop stop-color="#5F9DA9"/>
<stop offset="1" stop-color="#E9F3F3" stop-opacity="0.01"/>
</linearGradient>
<linearGradient id="paint1_linear_1_774" x1="85.1527" y1="112.396" x2="85.1527" y2="49.7949" gradientUnits="userSpaceOnUse">
<stop stop-color="#5F9DA9"/>
<stop offset="1" stop-color="#E9F3F3" stop-opacity="0.01"/>
</linearGradient>
<linearGradient id="paint2_linear_1_774" x1="95.884" y1="112.646" x2="95.884" y2="75.9487" gradientUnits="userSpaceOnUse">
<stop stop-color="#5F9DA9"/>
<stop offset="1" stop-color="#E9F3F3" stop-opacity="0.01"/>
</linearGradient>
<linearGradient id="paint3_linear_1_774" x1="30.1697" y1="112.646" x2="30.1697" y2="75.9487" gradientUnits="userSpaceOnUse">
<stop stop-color="#5F9DA9"/>
<stop offset="1" stop-color="#E9F3F3" stop-opacity="0.01"/>
</linearGradient>
<linearGradient id="paint4_linear_1_774" x1="73.003" y1="112.188" x2="73.003" y2="28" gradientUnits="userSpaceOnUse">
<stop stop-color="#5F9DA9"/>
<stop offset="1" stop-color="#E9F3F3" stop-opacity="0.01"/>
</linearGradient>
<linearGradient id="paint5_linear_1_774" x1="97.4384" y1="112.396" x2="97.4384" y2="49.7949" gradientUnits="userSpaceOnUse">
<stop stop-color="#5F9DA9"/>
<stop offset="1" stop-color="#E9F3F3" stop-opacity="0.01"/>
</linearGradient>
<linearGradient id="paint6_linear_1_774" x1="138.153" y1="112.396" x2="138.153" y2="49.7949" gradientUnits="userSpaceOnUse">
<stop stop-color="#5F9DA9"/>
<stop offset="1" stop-color="#E9F3F3" stop-opacity="0.01"/>
</linearGradient>
<linearGradient id="paint7_linear_1_774" x1="148.884" y1="112.646" x2="148.884" y2="75.9487" gradientUnits="userSpaceOnUse">
<stop stop-color="#5F9DA9"/>
<stop offset="1" stop-color="#E9F3F3" stop-opacity="0.01"/>
</linearGradient>
<linearGradient id="paint8_linear_1_774" x1="83.1697" y1="112.646" x2="83.1697" y2="75.9487" gradientUnits="userSpaceOnUse">
<stop stop-color="#5F9DA9"/>
<stop offset="1" stop-color="#E9F3F3" stop-opacity="0.01"/>
</linearGradient>
<linearGradient id="paint9_linear_1_774" x1="126.003" y1="112.188" x2="126.003" y2="28" gradientUnits="userSpaceOnUse">
<stop stop-color="#5F9DA9"/>
<stop offset="1" stop-color="#E9F3F3" stop-opacity="0.01"/>
</linearGradient>
</defs>
</svg>
